<svg xmlns="http://www.w3.org/2000/svg" viewBox="0 0 300 300" >
<line x1="150.0" y1="47.0" x2="150.0" y2="17.6" stroke="#111111" stroke-width="8.4" stroke-linecap="round"/>
<circle cx="150.0" cy="17.6" r="5.6" fill="#111111"/>
<line x1="184.6" y1="61.4" x2="205.4" y2="40.6" stroke="#111111" stroke-width="8.4" stroke-linecap="round"/>
<circle cx="205.4" cy="40.6" r="5.6" fill="#111111"/>
<line x1="199.0" y1="96.0" x2="228.4" y2="96.0" stroke="#111111" stroke-width="8.4" stroke-linecap="round"/>
<circle cx="228.4" cy="96.0" r="5.6" fill="#111111"/>
<line x1="184.6" y1="130.6" x2="205.4" y2="151.4" stroke="#111111" stroke-width="8.4" stroke-linecap="round"/>
<circle cx="205.4" cy="151.4" r="5.6" fill="#111111"/>
<line x1="150.0" y1="145.0" x2="150.0" y2="174.4" stroke="#111111" stroke-width="8.4" stroke-linecap="round"/>
<circle cx="150.0" cy="174.4" r="5.6" fill="#111111"/>
<line x1="115.4" y1="130.6" x2="94.6" y2="151.4" stroke="#111111" stroke-width="8.4" stroke-linecap="round"/>
<circle cx="94.6" cy="151.4" r="5.6" fill="#111111"/>
<line x1="101.0" y1="96.0" x2="71.6" y2="96.0" stroke="#111111" stroke-width="8.4" stroke-linecap="round"/>
<circle cx="71.6" cy="96.0" r="5.6" fill="#111111"/>
<line x1="115.4" y1="61.4" x2="94.6" y2="40.6" stroke="#111111" stroke-width="8.4" stroke-linecap="round"/>
<circle cx="94.6" cy="40.6" r="5.6" fill="#111111"/>
<circle cx="150" cy="96" r="58.8" fill="none" stroke="#C8102E" stroke-width="9.1"/>
<line x1="150.0" y1="80.6" x2="150.0" y2="42.1" stroke="#111111" stroke-width="6.3" stroke-linecap="round"/>
<line x1="160.9" y1="85.1" x2="188.1" y2="57.9" stroke="#111111" stroke-width="6.3" stroke-linecap="round"/>
<line x1="165.4" y1="96.0" x2="203.9" y2="96.0" stroke="#111111" stroke-width="6.3" stroke-linecap="round"/>
<line x1="160.9" y1="106.9" x2="188.1" y2="134.1" stroke="#111111" stroke-width="6.3" stroke-linecap="round"/>
<line x1="150.0" y1="111.4" x2="150.0" y2="149.9" stroke="#111111" stroke-width="6.3" stroke-linecap="round"/>
<line x1="139.1" y1="106.9" x2="111.9" y2="134.1" stroke="#111111" stroke-width="6.3" stroke-linecap="round"/>
<line x1="134.6" y1="96.0" x2="96.1" y2="96.0" stroke="#111111" stroke-width="6.3" stroke-linecap="round"/>
<line x1="139.1" y1="85.1" x2="111.9" y2="57.9" stroke="#111111" stroke-width="6.3" stroke-linecap="round"/>
<circle cx="150" cy="96" r="21.0" fill="#111111"/>
<circle cx="150" cy="96" r="9.1" fill="#C8102E"/>
<circle cx="150" cy="96" r="2.8" fill="#FFFFFF"/>
<text x="150" y="232" text-anchor="middle" font-family="Segoe UI, Helvetica, Arial, sans-serif" font-size="50" font-weight="700" fill="#111111" letter-spacing="1">THE <tspan fill="#C8102E">HELM</tspan></text><text x="150" y="262" text-anchor="middle" font-family="Segoe UI, Helvetica, Arial, sans-serif" font-size="14" font-weight="600" letter-spacing="4" fill="#6b6b6b">LODESTONE &amp; PURSER</text>
</svg>
