<svg xmlns="http://www.w3.org/2000/svg" viewBox="0 0 560 164" >
<line x1="82.0" y1="38.6" x2="82.0" y2="12.6" stroke="#111111" stroke-width="7.4" stroke-linecap="round"/>
<circle cx="82.0" cy="12.6" r="5.0" fill="#111111"/>
<line x1="112.7" y1="51.3" x2="131.1" y2="32.9" stroke="#111111" stroke-width="7.4" stroke-linecap="round"/>
<circle cx="131.1" cy="32.9" r="5.0" fill="#111111"/>
<line x1="125.4" y1="82.0" x2="151.4" y2="82.0" stroke="#111111" stroke-width="7.4" stroke-linecap="round"/>
<circle cx="151.4" cy="82.0" r="5.0" fill="#111111"/>
<line x1="112.7" y1="112.7" x2="131.1" y2="131.1" stroke="#111111" stroke-width="7.4" stroke-linecap="round"/>
<circle cx="131.1" cy="131.1" r="5.0" fill="#111111"/>
<line x1="82.0" y1="125.4" x2="82.0" y2="151.4" stroke="#111111" stroke-width="7.4" stroke-linecap="round"/>
<circle cx="82.0" cy="151.4" r="5.0" fill="#111111"/>
<line x1="51.3" y1="112.7" x2="32.9" y2="131.1" stroke="#111111" stroke-width="7.4" stroke-linecap="round"/>
<circle cx="32.9" cy="131.1" r="5.0" fill="#111111"/>
<line x1="38.6" y1="82.0" x2="12.6" y2="82.0" stroke="#111111" stroke-width="7.4" stroke-linecap="round"/>
<circle cx="12.6" cy="82.0" r="5.0" fill="#111111"/>
<line x1="51.3" y1="51.3" x2="32.9" y2="32.9" stroke="#111111" stroke-width="7.4" stroke-linecap="round"/>
<circle cx="32.9" cy="32.9" r="5.0" fill="#111111"/>
<circle cx="82" cy="82" r="52.1" fill="none" stroke="#C8102E" stroke-width="8.1"/>
<line x1="82.0" y1="68.4" x2="82.0" y2="34.3" stroke="#111111" stroke-width="5.6" stroke-linecap="round"/>
<line x1="91.6" y1="72.4" x2="115.8" y2="48.2" stroke="#111111" stroke-width="5.6" stroke-linecap="round"/>
<line x1="95.6" y1="82.0" x2="129.7" y2="82.0" stroke="#111111" stroke-width="5.6" stroke-linecap="round"/>
<line x1="91.6" y1="91.6" x2="115.8" y2="115.8" stroke="#111111" stroke-width="5.6" stroke-linecap="round"/>
<line x1="82.0" y1="95.6" x2="82.0" y2="129.7" stroke="#111111" stroke-width="5.6" stroke-linecap="round"/>
<line x1="72.4" y1="91.6" x2="48.2" y2="115.8" stroke="#111111" stroke-width="5.6" stroke-linecap="round"/>
<line x1="68.4" y1="82.0" x2="34.3" y2="82.0" stroke="#111111" stroke-width="5.6" stroke-linecap="round"/>
<line x1="72.4" y1="72.4" x2="48.2" y2="48.2" stroke="#111111" stroke-width="5.6" stroke-linecap="round"/>
<circle cx="82" cy="82" r="18.6" fill="#111111"/>
<circle cx="82" cy="82" r="8.1" fill="#C8102E"/>
<circle cx="82" cy="82" r="2.5" fill="#FFFFFF"/>
<text x="178" y="84" font-family="Segoe UI, Helvetica, Arial, sans-serif" font-size="62" font-weight="700" fill="#111111" letter-spacing="1">THE <tspan fill="#C8102E">HELM</tspan></text><text x="180" y="118" font-family="Segoe UI, Helvetica, Arial, sans-serif" font-size="18" font-weight="600" letter-spacing="5" fill="#6b6b6b">LODESTONE &amp; PURSER</text>
</svg>
