<svg xmlns="http://www.w3.org/2000/svg" viewBox="0 0 240 240" >
<rect x="0" y="0" width="240" height="240" rx="52" fill="#111111"/>
<line x1="120.0" y1="55.6" x2="120.0" y2="17.0" stroke="#FFFFFF" stroke-width="11.0" stroke-linecap="round"/>
<circle cx="120.0" cy="17.0" r="7.4" fill="#FFFFFF"/>
<line x1="165.5" y1="74.5" x2="192.9" y2="47.1" stroke="#FFFFFF" stroke-width="11.0" stroke-linecap="round"/>
<circle cx="192.9" cy="47.1" r="7.4" fill="#FFFFFF"/>
<line x1="184.4" y1="120.0" x2="223.0" y2="120.0" stroke="#FFFFFF" stroke-width="11.0" stroke-linecap="round"/>
<circle cx="223.0" cy="120.0" r="7.4" fill="#FFFFFF"/>
<line x1="165.5" y1="165.5" x2="192.9" y2="192.9" stroke="#FFFFFF" stroke-width="11.0" stroke-linecap="round"/>
<circle cx="192.9" cy="192.9" r="7.4" fill="#FFFFFF"/>
<line x1="120.0" y1="184.4" x2="120.0" y2="223.0" stroke="#FFFFFF" stroke-width="11.0" stroke-linecap="round"/>
<circle cx="120.0" cy="223.0" r="7.4" fill="#FFFFFF"/>
<line x1="74.5" y1="165.5" x2="47.1" y2="192.9" stroke="#FFFFFF" stroke-width="11.0" stroke-linecap="round"/>
<circle cx="47.1" cy="192.9" r="7.4" fill="#FFFFFF"/>
<line x1="55.6" y1="120.0" x2="17.0" y2="120.0" stroke="#FFFFFF" stroke-width="11.0" stroke-linecap="round"/>
<circle cx="17.0" cy="120.0" r="7.4" fill="#FFFFFF"/>
<line x1="74.5" y1="74.5" x2="47.1" y2="47.1" stroke="#FFFFFF" stroke-width="11.0" stroke-linecap="round"/>
<circle cx="47.1" cy="47.1" r="7.4" fill="#FFFFFF"/>
<circle cx="120" cy="120" r="77.3" fill="none" stroke="#C8102E" stroke-width="12.0"/>
<line x1="120.0" y1="99.8" x2="120.0" y2="49.2" stroke="#FFFFFF" stroke-width="8.3" stroke-linecap="round"/>
<line x1="134.3" y1="105.7" x2="170.1" y2="69.9" stroke="#FFFFFF" stroke-width="8.3" stroke-linecap="round"/>
<line x1="140.2" y1="120.0" x2="190.8" y2="120.0" stroke="#FFFFFF" stroke-width="8.3" stroke-linecap="round"/>
<line x1="134.3" y1="134.3" x2="170.1" y2="170.1" stroke="#FFFFFF" stroke-width="8.3" stroke-linecap="round"/>
<line x1="120.0" y1="140.2" x2="120.0" y2="190.8" stroke="#FFFFFF" stroke-width="8.3" stroke-linecap="round"/>
<line x1="105.7" y1="134.3" x2="69.9" y2="170.1" stroke="#FFFFFF" stroke-width="8.3" stroke-linecap="round"/>
<line x1="99.8" y1="120.0" x2="49.2" y2="120.0" stroke="#FFFFFF" stroke-width="8.3" stroke-linecap="round"/>
<line x1="105.7" y1="105.7" x2="69.9" y2="69.9" stroke="#FFFFFF" stroke-width="8.3" stroke-linecap="round"/>
<circle cx="120" cy="120" r="27.6" fill="#FFFFFF"/>
<circle cx="120" cy="120" r="12.0" fill="#C8102E"/>
<circle cx="120" cy="120" r="3.7" fill="#FFFFFF"/>
</svg>
